<svg width="50" height="41" viewBox="0 0 50 41" fill="none" xmlns="http://www.w3.org/2000/svg">
<path d="M48.3221 5.46855L44.8172 5.46838V1.84028C44.8172 1.00964 44.2094 0.303918 43.3879 0.181023C43.2445 0.159474 39.83 -0.336484 35.7184 0.411661C31.1347 1.24567 27.4792 3.30239 24.9999 6.41164C22.5205 3.30239 18.8649 1.24567 14.2814 0.411661C10.1697 -0.336316 6.7552 0.159474 6.61193 0.181023C5.79039 0.304086 5.18264 1.00981 5.18264 1.84028V5.46838H1.67777C0.751344 5.46838 0 6.21972 0 7.14632V38.7632C0 39.3065 0.262962 39.8161 0.70589 40.1309C1.14882 40.4457 1.71666 40.5265 2.22962 40.3477C2.35555 40.3041 14.9284 36.0132 24.3036 40.2896C24.746 40.4915 25.254 40.4915 25.6964 40.2896C35.0453 36.0253 47.6451 40.3045 47.7704 40.3477C47.9502 40.4104 48.1364 40.4412 48.3219 40.4412C48.6658 40.4412 49.0062 40.3354 49.2941 40.1311C49.737 39.8162 50 39.3067 50 38.7634V7.14649C49.9998 6.21989 49.2487 5.46855 48.3221 5.46855ZM3.35571 36.5183V8.82409H5.18264V31.1685C5.18264 31.656 5.39594 32.119 5.7648 32.4377C6.13365 32.7563 6.62422 32.8993 7.10637 32.8281C7.19897 32.8146 14.4878 31.8139 19.8131 35.4676C13.2533 34.3459 6.68802 35.6434 3.35571 36.5183ZM23.3221 33.9545C20.9767 31.8353 17.9217 30.4023 14.2814 29.74C12.5296 29.4212 10.9043 29.3282 9.60468 29.3282C9.21882 29.3282 8.86159 29.3365 8.53852 29.3494V3.38101H8.53835C11.7631 3.23556 19.6077 3.58034 23.3221 9.87712V33.9545ZM26.6777 9.87729C30.3789 3.60744 38.2357 3.24701 41.4615 3.38522V29.3494C40.0502 29.2925 37.9901 29.3266 35.7184 29.74C32.0782 30.4023 29.0231 31.8351 26.6777 33.9545V9.87729ZM30.1812 35.4686C35.5071 31.8127 42.7999 32.8144 42.8908 32.8279C43.3741 32.9004 43.8643 32.7584 44.2344 32.4398C44.6044 32.121 44.8172 31.657 44.8172 31.1685V8.82426H46.6441V36.5183C43.3108 35.643 36.7428 34.3451 30.1812 35.4686Z" fill="#4827A1"/>
</svg>
